<svg width="61" height="74" viewBox="0 0 61 74" fill="none" xmlns="http://www.w3.org/2000/svg">
<g filter="url(#filter0_d)">
<path fill-rule="evenodd" clip-rule="evenodd" d="M36 0C16.1178 0 0 16.1178 0 36C0 55.8823 16.1178 72 36 72H61V0H36ZM32.5836 22.341L42.9621 32.5388C44.3461 33.8954 44.3461 36.1045 42.9611 37.4622L32.5837 47.659C32.3523 47.8863 32.0487 48 31.7452 48C31.4427 48 31.14 47.8871 30.9089 47.6611C30.4459 47.2084 30.445 46.4734 30.9068 46.0196L41.2853 35.8218C41.748 35.3682 41.748 34.6319 41.2864 34.1793L30.9068 23.9804C30.4449 23.5266 30.4459 22.7916 30.9089 22.3389C31.3719 21.8863 32.1217 21.8871 32.5836 22.341Z" fill="white" fill-opacity="0.86"/>
</g>
<defs>
<filter id="filter0_d" x="0" y="0" width="61" height="74" filterUnits="userSpaceOnUse" color-interpolation-filters="sRGB">
<feFlood flood-opacity="0" result="BackgroundImageFix"/>
<feColorMatrix in="SourceAlpha" type="matrix" values="0 0 0 0 0 0 0 0 0 0 0 0 0 0 0 0 0 0 127 0"/>
<feOffset dy="2"/>
<feColorMatrix type="matrix" values="0 0 0 0 0.46014 0 0 0 0 0.437709 0 0 0 0 0.437709 0 0 0 0.5 0"/>
<feBlend mode="normal" in2="BackgroundImageFix" result="effect1_dropShadow"/>
<feBlend mode="normal" in="SourceGraphic" in2="effect1_dropShadow" result="shape"/>
</filter>
</defs>
</svg>
