<svg width="61" height="74" viewBox="0 0 61 74" fill="none" xmlns="http://www.w3.org/2000/svg">
<g filter="url(#filter0_d)">
<path fill-rule="evenodd" clip-rule="evenodd" d="M25 0C44.8822 0 61 16.1178 61 36C61 55.8823 44.8822 72 25 72H0V0H25ZM28.4164 22.341L18.0379 32.5388C16.6539 33.8954 16.6539 36.1045 18.0389 37.4622L28.4163 47.659C28.6477 47.8863 28.9513 48 29.2548 48C29.5573 48 29.86 47.8871 30.0911 47.6611C30.5541 47.2084 30.555 46.4734 30.0932 46.0196L19.7147 35.8218C19.252 35.3682 19.252 34.6319 19.7136 34.1793L30.0932 23.9804C30.5551 23.5266 30.5541 22.7916 30.0911 22.3389C29.6281 21.8863 28.8783 21.8871 28.4164 22.341Z" fill="white" fill-opacity="0.86"/>
</g>
<defs>
<filter id="filter0_d" x="0" y="0" width="61" height="74" filterUnits="userSpaceOnUse" color-interpolation-filters="sRGB">
<feFlood flood-opacity="0" result="BackgroundImageFix"/>
<feColorMatrix in="SourceAlpha" type="matrix" values="0 0 0 0 0 0 0 0 0 0 0 0 0 0 0 0 0 0 127 0"/>
<feOffset dy="2"/>
<feColorMatrix type="matrix" values="0 0 0 0 0.46014 0 0 0 0 0.437709 0 0 0 0 0.437709 0 0 0 0.5 0"/>
<feBlend mode="normal" in2="BackgroundImageFix" result="effect1_dropShadow"/>
<feBlend mode="normal" in="SourceGraphic" in2="effect1_dropShadow" result="shape"/>
</filter>
</defs>
</svg>
