<svg width="57" height="74" viewBox="0 0 57 74" xmlns="http://www.w3.org/2000/svg" xmlns:xlink="http://www.w3.org/1999/xlink"><title>Combined Shape</title><defs><path d="M130.998 78.002h52.004C202.883 78.002 219 94.119 219 114c0 19.881-16.117 35.998-35.998 35.998h-52.004C111.117 149.998 95 133.881 95 114c0-19.881 16.117-35.998 35.998-35.998zm6.998 32.537l-10.04-10.198a1.135 1.135 0 0 0-1.62-.002 1.172 1.172 0 0 0-.002 1.641l10.041 10.2a1.173 1.173 0 0 1-.001 1.642l-10.04 10.198a1.172 1.172 0 0 0 .002 1.641 1.134 1.134 0 0 0 1.62-.002l10.039-10.197a3.519 3.519 0 0 0 .001-4.923z" id="b"/><filter x="-.8%" y="-1.4%" width="101.6%" height="105.6%" filterUnits="objectBoundingBox" id="a"><feOffset dy="2" in="SourceAlpha" result="shadowOffsetOuter1"/><feComposite in="shadowOffsetOuter1" in2="SourceAlpha" operator="out" result="shadowOffsetOuter1"/><feColorMatrix values="0 0 0 0 0.460140306 0 0 0 0 0.437708829 0 0 0 0 0.437708829 0 0 0 0.5 0" in="shadowOffsetOuter1"/></filter></defs><g transform="translate(-95 -78)" fill="none" fill-rule="evenodd"><use fill="#000" filter="url(#a)" xlink:href="#b"/><use fill="#FFF" xlink:href="#b"/></g></svg>